<?xml version="1.0" encoding="UTF-8" standalone="no"?>
<!-- Created with Inkscape (http://www.inkscape.org/) -->

<svg
   xmlns:dc="http://purl.org/dc/elements/1.1/"
   xmlns:cc="http://creativecommons.org/ns#"
   xmlns:rdf="http://www.w3.org/1999/02/22-rdf-syntax-ns#"
   xmlns:svg="http://www.w3.org/2000/svg"
   xmlns="http://www.w3.org/2000/svg"
   xmlns:sodipodi="http://sodipodi.sourceforge.net/DTD/sodipodi-0.dtd"
   xmlns:inkscape="http://www.inkscape.org/namespaces/inkscape"
   width="560"
   height="84"
   viewBox="0 0 148.16667 22.225001"
   version="1.1"
   id="svg8"
   inkscape:version="0.92.4 (5da689c313, 2019-01-14)"
   sodipodi:docname="logo.svg">
  <defs
     id="defs2" />
  <sodipodi:namedview
     id="base"
     pagecolor="#ffffff"
     bordercolor="#666666"
     borderopacity="1.0"
     inkscape:pageopacity="0.0"
     inkscape:pageshadow="2"
     inkscape:zoom="0.7"
     inkscape:cx="98.229845"
     inkscape:cy="353.71555"
     inkscape:document-units="px"
     inkscape:current-layer="layer1"
     showgrid="false"
     units="px"
     inkscape:window-width="1827"
     inkscape:window-height="1057"
     inkscape:window-x="85"
     inkscape:window-y="-8"
     inkscape:window-maximized="1" />
  <metadata
     id="metadata5">
    <rdf:RDF>
      <cc:Work
         rdf:about="">
        <dc:format>image/svg+xml</dc:format>
        <dc:type
           rdf:resource="http://purl.org/dc/dcmitype/StillImage" />
        <dc:title></dc:title>
      </cc:Work>
    </rdf:RDF>
  </metadata>
  <g
     inkscape:label="Layer 1"
     inkscape:groupmode="layer"
     id="layer1"
     transform="translate(0,-274.77498)">
    <path
       style="font-style:normal;font-variant:normal;font-weight:bold;font-stretch:normal;font-size:10.66666698px;line-height:13.33333397px;font-family:Oswald;-inkscape-font-specification:'Oswald Bold';font-variant-ligatures:normal;font-variant-caps:normal;font-variant-numeric:normal;font-feature-settings:normal;text-align:center;letter-spacing:0.27382988px;word-spacing:0px;writing-mode:lr-tb;text-anchor:middle;fill:#666666;fill-opacity:1;stroke:none;stroke-width:0.26458332"
       d="m 2.5042985,278.50998 v 15.30498 l 3.3786293,-10e-4 v -6.84934 h 0.950672 l 1.680167,6.84955 H 12.012407 L 9.9076248,286.4017 c 0.7077142,-0.33847 1.1970892,-0.81232 1.4678592,-1.42157 0.270781,-0.60924 0.406044,-1.41542 0.406044,-2.41854 0,-0.63386 -0.08001,-1.18774 -0.240022,-1.6616 -0.159997,-0.4738 -0.381547,-0.86144 -0.664641,-1.16298 -0.28308,-0.30165 -0.643173,-0.54492 -1.0801062,-0.72949 -0.436934,-0.18526 -0.904522,-0.3145 -1.403003,-0.38775 -0.498471,-0.0733 -1.070852,-0.10975 -1.717031,-0.10975 z m 11.7841775,0 v 15.30498 h 6.914131 v -2.28938 h -3.535504 v -4.56932 h 2.667703 v -2.35395 h -2.667703 v -3.78467 h 3.498364 v -2.30766 z m 8.94103,0 v 15.30498 h 2.889156 v -7.92024 l 3.157173,7.92024 h 2.289098 v -15.30498 h -2.806006 v 7.34789 l -3.148029,-7.34789 z m 10.140867,0 v 2.50168 h 2.35396 v 12.8033 h 3.38777 v -12.8033 h 2.32624 v -2.50168 z m -27.4874452,2.27079 h 1.042968 c 0.627709,0 1.067818,0.17229 1.32013,0.51691 0.25847,0.33847 0.387752,0.86158 0.387752,1.56931 0,0.72001 -0.141522,1.25838 -0.424614,1.61531 -0.283082,0.35694 -0.76919,0.53547 -1.458437,0.53547 h -0.867799 z"
       id="path1109"
       inkscape:connector-curvature="0" />
    <path
       style="font-style:normal;font-variant:normal;font-weight:bold;font-stretch:normal;font-size:10.66666698px;line-height:13.33333397px;font-family:Oswald;-inkscape-font-specification:'Oswald Bold';font-variant-ligatures:normal;font-variant-caps:normal;font-variant-numeric:normal;font-feature-settings:normal;text-align:center;letter-spacing:0.27382988px;word-spacing:0px;writing-mode:lr-tb;text-anchor:middle;fill:#008000;fill-opacity:1;stroke:none;stroke-width:0.26458332"
       d="m 84.527623,278.29767 c -1.32927,0.006 -2.37521,0.35702 -3.13832,1.05239 -0.7631,0.69534 -1.14469,1.67979 -1.14469,2.95373 0,0.47385 0.049,0.90771 0.14745,1.30156 0.0985,0.39387 0.24925,0.75394 0.45233,1.0801 0.20923,0.32001 0.4218,0.59709 0.6372,0.83095 0.21539,0.23383 0.48593,0.49213 0.81209,0.77522 l 1.357,1.1724 c 0.38771,0.33232 0.68927,0.62165 0.90466,0.86781 0.21539,0.24615 0.39693,0.54445 0.54463,0.89524 0.1477,0.34461 0.22173,0.72321 0.22173,1.13553 0,0.73849 -0.28634,1.10755 -0.85866,1.10755 -0.43693,0 -0.76626,-0.21529 -0.98781,-0.64607 -0.2154,-0.43693 -0.32917,-1.13533 -0.34146,-2.09535 l -2.89858,0.4429 c 0.0554,1.69236 0.43698,2.92639 1.14469,3.7018 0.71387,0.76926 1.79711,1.15384 3.24946,1.15384 v -2.8e-4 c 1.20003,0 2.16924,-0.36308 2.90773,-1.08925 0.73848,-0.73233 1.10782,-1.65228 1.10782,-2.76 0,-0.5108 -0.0615,-0.98763 -0.18459,-1.43072 -0.11693,-0.44924 -0.29248,-0.85859 -0.52633,-1.22784 -0.23386,-0.3754 -0.47989,-0.70772 -0.73837,-0.99696 -0.25847,-0.29539 -0.5663,-0.60293 -0.92323,-0.92295 l -1.30156,-1.14469 c -0.25853,-0.23392 -0.44306,-0.40619 -0.55377,-0.51691 -0.11078,-0.11077 -0.25557,-0.27708 -0.43404,-0.49862 -0.17231,-0.22155 -0.29534,-0.44909 -0.36918,-0.68293 -0.0677,-0.24001 -0.10145,-0.50484 -0.10145,-0.79408 0,-0.30155 0.077,-0.57208 0.23088,-0.81208 0.16,-0.2405 0.38754,-0.36682 0.68293,-0.37861 0.14776,-0.006 0.27404,0.0123 0.37861,0.0549 0.11076,0.0432 0.19976,0.11716 0.26746,0.22173 0.0738,0.0984 0.1326,0.20621 0.17572,0.32318 0.0431,0.11691 0.0769,0.2707 0.10145,0.46147 0.0248,0.19078 0.0401,0.37232 0.046,0.54462 0.0126,0.16616 0.0218,0.37846 0.0277,0.63693 l 2.9263,-0.37861 c -0.0124,-0.28924 -0.0338,-0.56004 -0.0646,-0.81237 -0.0246,-0.25231 -0.0769,-0.52913 -0.15687,-0.83065 -0.0738,-0.30769 -0.16933,-0.58143 -0.28631,-0.82152 -0.11077,-0.24611 -0.26455,-0.48924 -0.46148,-0.72921 -0.19077,-0.24613 -0.41532,-0.44938 -0.67379,-0.60949 -0.25231,-0.16033 -0.5664,-0.28939 -0.9418,-0.38747 -0.36924,-0.0981 -0.78159,-0.14717 -1.23698,-0.14717 z m 10.63035,0 c -0.84926,0 -1.57542,0.11077 -2.17851,0.33232 -0.59695,0.22154 -1.07406,0.55386 -1.431,0.99694 -0.35077,0.4431 -0.60607,0.96627 -0.76608,1.5693 -0.15385,0.59696 -0.23088,1.3076 -0.23088,2.13223 v 5.64944 c 0,0.81848 0.077,1.52939 0.23088,2.13249 0.16001,0.60309 0.41531,1.12921 0.76608,1.57845 0.35694,0.44309 0.83405,0.77841 1.431,1.00611 0.60309,0.22154 1.32925,0.33232 2.17851,0.33232 1.655431,0 2.839921,-0.4246 3.553791,-1.27385 0.72003,-0.85541 1.08011,-2.11394 1.08011,-3.77552 v -5.64944 c 0,-1.66163 -0.36008,-2.91389 -1.08011,-3.75696 -0.71387,-0.84919 -1.89836,-1.27383 -3.553791,-1.27383 z m 37.674597,0 c -0.68925,0 -1.29537,0.083 -1.81846,0.24916 -0.5231,0.15999 -0.96023,0.38782 -1.31099,0.68321 -0.35079,0.2954 -0.63683,0.66774 -0.85837,1.11698 -0.21544,0.44922 -0.37248,0.94132 -0.47091,1.47672 -0.0923,0.5354 -0.1383,1.1418 -0.1383,1.81875 v 5.08624 c 0,0.82463 0.0708,1.55079 0.2123,2.1785 0.1477,0.62771 0.38149,1.18158 0.70151,1.6616 0.32,0.48001 0.75384,0.84607 1.30155,1.0984 0.55387,0.24616 1.21852,0.36918 1.99392,0.36918 l 2.9e-4,0.002 c 1.19388,0 2.01529,-0.50161 2.46454,-1.50472 l 0.194,1.28299 h 2.2431 v -7.9571 h -4.44018 v 2.02163 h 1.38472 v 1.71704 c 0,1.36003 -0.4431,2.03993 -1.32929,2.03993 -0.48,0 -0.81233,-0.17529 -0.99694,-0.52606 -0.17847,-0.35695 -0.26775,-0.84005 -0.26775,-1.44929 v -7.00644 c 0,-0.22767 0.003,-0.41848 0.009,-0.57234 0.0123,-0.16 0.04,-0.33527 0.0832,-0.52605 0.0492,-0.19084 0.11374,-0.34162 0.19373,-0.45233 0.08,-0.11659 0.19378,-0.21511 0.34148,-0.29546 0.15384,-0.0804 0.33865,-0.12056 0.55405,-0.12056 0.20922,0 0.38451,0.0365 0.52605,0.10975 0.1477,0.0678 0.25847,0.15103 0.33232,0.24945 0.0801,0.0985 0.13857,0.237 0.17544,0.41547 0.0434,0.17847 0.0681,0.34149 0.074,0.48919 0.0123,0.1477 0.0183,0.33849 0.0183,0.57234 v 1.22756 h 3.30491 v -0.96924 c 0,-0.55387 -0.0463,-1.05221 -0.13859,-1.4953 -0.0923,-0.4493 -0.24607,-0.86159 -0.46148,-1.23698 -0.21539,-0.38152 -0.49546,-0.69867 -0.84009,-0.95094 -0.33846,-0.25238 -0.76305,-0.4491 -1.27383,-0.59064 -0.5108,-0.14144 -1.09841,-0.21231 -1.76305,-0.21231 z m -84.220397,0.21231 v 15.30498 h 3.37863 V 287.298 h 1.32928 c 0.43694,0 0.83404,-0.0247 1.19097,-0.074 0.36309,-0.0554 0.71691,-0.14467 1.06154,-0.26774 0.34463,-0.12309 0.6462,-0.29237 0.90466,-0.50776 0.25847,-0.22154 0.48601,-0.48908 0.68293,-0.80294 0.19697,-0.31386 0.34477,-0.69844 0.44319,-1.15384 0.10457,-0.45539 0.15688,-0.96926 0.15688,-1.54159 0,-1.44618 -0.33532,-2.5477 -1.00611,-3.30462 -0.67079,-0.75704 -1.68328,-1.13553 -3.03716,-1.13553 z m 11.23041,0 v 15.30498 h 6.91385 v -2.28938 h -3.53523 v -4.56932 h 2.66771 v -2.35395 h -2.66771 v -3.78467 h 3.49837 v -2.30766 z m 8.94075,0 v 15.30498 l 3.37863,-10e-4 v -6.84934 h 0.95095 l 1.67988,6.84955 h 3.49865 l -2.10479,-7.41247 c 0.70772,-0.33847 1.19709,-0.81232 1.46787,-1.42157 0.27077,-0.60924 0.40604,-1.41542 0.40604,-2.41854 0,-0.63386 -0.08,-1.18774 -0.24002,-1.6616 -0.16001,-0.4738 -0.38157,-0.86144 -0.66464,-1.16298 -0.28309,-0.30165 -0.64289,-0.54492 -1.07984,-0.72949 -0.43692,-0.18526 -0.90481,-0.3145 -1.40327,-0.38775 -0.49849,-0.0733 -1.07059,-0.10975 -1.71676,-0.10975 z m 33.543197,0 v 15.30498 h 2.88944 v -7.92024 l 3.15689,7.92024 h 2.28938 v -15.30498 h -2.80629 v 7.34789 l -3.14775,-7.34789 z m 11.08268,0 v 15.30498 h 6.88614 v -2.28938 h -3.50779 v -13.0156 z m 8.89474,0 v 15.30498 h 3.37863 v -15.30498 z m 16.69109,0 v 2.50168 h 2.35395 v 12.8033 h 3.38778 v -12.8033 h 2.32623 v -2.50168 z m -43.837067,2.17933 c 0.20309,0 0.37836,0.0365 0.526061,0.10976 0.14771,0.0677 0.26175,0.15402 0.34174,0.25859 0.0799,0.10462 0.14146,0.24315 0.18459,0.41547 0.0492,0.16616 0.08,0.3262 0.0923,0.48004 0.0123,0.1477 0.0183,0.32297 0.0183,0.52607 v 7.33874 c 0,0.20923 -0.006,0.39077 -0.0183,0.54462 -0.0123,0.1477 -0.043,0.30773 -0.0923,0.48005 -0.0431,0.17237 -0.1046,0.31391 -0.18459,0.42462 -0.08,0.10462 -0.19405,0.19389 -0.34174,0.26774 -0.147701,0.0677 -0.322971,0.10144 -0.526061,0.10144 -0.20308,0 -0.37864,-0.037 -0.52634,-0.11087 -0.14156,-0.0739 -0.25233,-0.16316 -0.33232,-0.26774 -0.08,-0.10461 -0.14146,-0.24288 -0.18459,-0.41519 -0.0431,-0.17848 -0.0708,-0.3385 -0.0831,-0.48005 -0.006,-0.14769 -0.009,-0.32923 -0.009,-0.54462 v -7.33874 c 0,-0.21542 0.003,-0.39395 0.009,-0.53549 0.0123,-0.14154 0.04,-0.29832 0.0831,-0.47062 0.0431,-0.17851 0.1046,-0.31705 0.18459,-0.41547 0.08,-0.10497 0.19078,-0.19125 0.33232,-0.25859 0.1477,-0.0733 0.32326,-0.10976 0.52634,-0.10976 z m -22.99601,0.0915 h 1.04324 c 0.62771,0 1.06754,0.17229 1.31986,0.51691 0.25847,0.33847 0.38775,0.86158 0.38775,1.56931 0,0.72001 -0.14153,1.25838 -0.42462,1.61531 -0.28308,0.35694 -0.76917,0.53547 -1.45843,0.53547 h -0.8678 z m -20.17116,0.102 h 1.07096 c 0.27078,0 0.50158,0.0338 0.69236,0.10116 0.19082,0.0677 0.33834,0.15703 0.44291,0.26775 0.11073,0.10462 0.19403,0.24913 0.24944,0.43375 0.0615,0.18463 0.0983,0.36617 0.11059,0.54463 0.0184,0.17846 0.0277,0.40001 0.0277,0.66464 0,0.74464 -0.10151,1.27375 -0.30461,1.5876 -0.19692,0.3077 -0.60001,0.46175 -1.20926,0.46175 h -1.08011 z"
       id="path1117"
       inkscape:connector-curvature="0" />
  </g>
</svg>
